<mxfile host="app.diagrams.net" agent="Mozilla/5.0 (Macintosh; Intel Mac OS X 10_15_7) AppleWebKit/537.36 (KHTML, like Gecko) Chrome/129.0.0.0 Safari/537.36" version="24.7.17">
  <diagram name="第 1 页" id="NL6Ysqw2el9EPDpZfOqE">
    <mxGraphModel dx="1026" dy="650" grid="1" gridSize="10" guides="1" tooltips="1" connect="1" arrows="1" fold="1" page="1" pageScale="1" pageWidth="827" pageHeight="1169" math="0" shadow="0">
      <root>
        <mxCell id="0" />
        <mxCell id="1" parent="0" />
        <mxCell id="CP5K81GHlPIZIS6XxBVr-3" value="" style="edgeStyle=orthogonalEdgeStyle;rounded=0;orthogonalLoop=1;jettySize=auto;html=1;" edge="1" parent="1" source="CP5K81GHlPIZIS6XxBVr-1" target="CP5K81GHlPIZIS6XxBVr-2">
          <mxGeometry relative="1" as="geometry" />
        </mxCell>
        <mxCell id="CP5K81GHlPIZIS6XxBVr-1" value="标签刷新记录查询" style="ellipse;whiteSpace=wrap;html=1;" vertex="1" parent="1">
          <mxGeometry x="250" y="90" width="120" height="50" as="geometry" />
        </mxCell>
        <mxCell id="CP5K81GHlPIZIS6XxBVr-5" value="" style="edgeStyle=orthogonalEdgeStyle;rounded=0;orthogonalLoop=1;jettySize=auto;html=1;" edge="1" parent="1" source="CP5K81GHlPIZIS6XxBVr-2" target="CP5K81GHlPIZIS6XxBVr-4">
          <mxGeometry relative="1" as="geometry" />
        </mxCell>
        <mxCell id="CP5K81GHlPIZIS6XxBVr-7" value="" style="edgeStyle=orthogonalEdgeStyle;rounded=0;orthogonalLoop=1;jettySize=auto;html=1;" edge="1" parent="1" source="CP5K81GHlPIZIS6XxBVr-2" target="CP5K81GHlPIZIS6XxBVr-6">
          <mxGeometry relative="1" as="geometry" />
        </mxCell>
        <mxCell id="CP5K81GHlPIZIS6XxBVr-2" value="根据标签id和&lt;div&gt;标签name校验&lt;/div&gt;&lt;div&gt;标签是否存在&lt;/div&gt;" style="rhombus;whiteSpace=wrap;html=1;" vertex="1" parent="1">
          <mxGeometry x="235" y="205" width="150" height="85" as="geometry" />
        </mxCell>
        <mxCell id="CP5K81GHlPIZIS6XxBVr-4" value="返回标签不存在" style="whiteSpace=wrap;html=1;" vertex="1" parent="1">
          <mxGeometry x="70" y="226.25" width="90" height="42.5" as="geometry" />
        </mxCell>
        <mxCell id="CP5K81GHlPIZIS6XxBVr-9" value="" style="edgeStyle=orthogonalEdgeStyle;rounded=0;orthogonalLoop=1;jettySize=auto;html=1;" edge="1" parent="1" source="CP5K81GHlPIZIS6XxBVr-6" target="CP5K81GHlPIZIS6XxBVr-8">
          <mxGeometry relative="1" as="geometry" />
        </mxCell>
        <mxCell id="CP5K81GHlPIZIS6XxBVr-6" value="查询mysql&lt;div&gt;标签刷新记录表&lt;/div&gt;" style="shape=process;whiteSpace=wrap;html=1;backgroundOutline=1;" vertex="1" parent="1">
          <mxGeometry x="250" y="350" width="120" height="60" as="geometry" />
        </mxCell>
        <mxCell id="CP5K81GHlPIZIS6XxBVr-8" value="封装返回数据" style="whiteSpace=wrap;html=1;" vertex="1" parent="1">
          <mxGeometry x="250" y="460" width="120" height="40" as="geometry" />
        </mxCell>
      </root>
    </mxGraphModel>
  </diagram>
</mxfile>
